<?xml version="1.0" encoding="UTF-8"?>
<svg width="500px" height="432px" viewBox="0 0 500 432" version="1.1" xmlns="http://www.w3.org/2000/svg" xmlns:xlink="http://www.w3.org/1999/xlink">
    <!-- Generator: Sketch 49 (51002) - http://www.bohemiancoding.com/sketch -->
    <title>coral_logo-01</title>
    <desc>Created with Sketch.</desc>
    <defs></defs>
    <g id="coral_logo-01" stroke="none" stroke-width="1" fill="none" fill-rule="evenodd">
        <path d="M292.640348,81.3202991 C335.374241,67.391241 318.521137,121.551344 292.70787,131.430949 C253.43156,146.420926 260.372404,219.916984 283.460137,235.166231 C314.035495,255.377741 397.487875,218.253991 396.888965,167.142513 C396.656077,147.992466 374.632962,118.3933 384.374316,100.625245 C397.535738,76.634049 427.573349,94.6367285 435.918596,112.305837 C447.201487,136.191878 428.680931,165.34476 438.255226,183.350815 C447.882975,201.438931 471.713327,182.528627 486.964792,188.158241 C513.940755,198.139001 492.911884,224.778232 471.082145,223.40564 C448.466421,221.992286 414.936519,232.692692 394.741019,242.508102 C384.62025,247.424418 343.778453,270.346535 349.385327,285.056285 C358.744991,309.593828 393.45456,313.588994 415.810811,316.241767 C440.558923,319.170657 449.071638,295.801418 468.990026,287.711882 C487.738682,280.079677 511.664402,306.016264 493.571155,320.64585 C473.334462,337.013802 446.366332,333.397145 422.465357,337.48701 C400.113428,341.316431 392.498604,359.17212 409.199769,374.602204 C417.034771,381.840906 425.019795,390.234176 415.481763,416.951069 C401.972313,454.79226 379.307288,409.727985 369.880562,376.673754 C363.26955,353.492654 332.734656,316.891718 321.114888,307.23117 C254.800394,252.098033 202.776118,267.784061 157.640717,282.194934 C74.9184536,308.606575 98.9322281,390.395417 17.3999475,291.313332 C-50.7223221,208.501432 100.73932,228.695689 136.142757,228.051682 C205.14731,226.777279 221.995192,179.729222 201.672918,106.143817 C193.163621,75.3382777 161.078163,45.2119232 155.075183,14.4140756 C149.577324,-13.878045 205.577158,4.57780683 220.631415,26.2220632 C234.186931,45.6857852 223.250658,132.95886 253.45028,126.482028 C271.685876,122.563697 268.278823,89.2601668 292.640348,81.3202991 Z" id="coral-logo" fill="#D0021B"></path>
    </g>
</svg>